<mxfile host="app.diagrams.net" modified="2023-10-24T02:31:34.010Z" agent="Mozilla/5.0 (X11; Linux x86_64; rv:109.0) Gecko/20100101 Firefox/114.0" version="22.0.6" etag="VvsPOJSKNqGjCm_levbv" type="github">
  <diagram name="第 1 页" id="y4COC3WBgxmngS8vt-3X">
    <mxGraphModel>
      <root>
        <mxCell id="0" />
        <mxCell id="1" parent="0" />
      </root>
    </mxGraphModel>
  </diagram>
</mxfile>
